{"title":"Adventures.Of.Sonic.The.Hedgehog.DvDRiP.XviD.MP3-CoDeX","uid":9664861,"size":11936733184,"categoryP":"video","categoryS":"tv_shows","magnet":"?xt=urn:btih:6eb9b27de4559075284d5055d079dd68979a753e&amp;dn=Adventures.Of.Sonic.The.Hedgehog.DvDRiP.XviD.MP3-CoDeX&amp;tr=udp%3A%2F%2Ftracker.openbittorrent.com%3A80&amp;tr=udp%3A%2F%2Fopen.demonii.com%3A1337&amp;tr=udp%3A%2F%2Ftracker.coppersurfer.tk%3A6969&amp;tr=udp%3A%2F%2Fexodus.desync.com%3A6969","seeders":1,"leechers":5,"uploader":"CodeX96","files":65,"time":1393359042,"description":"General\nComplete name                            : K:Adventures Of Sonic The HedgehogAdventures Of Sonic The Hedgehog, Season 2 [480p]S02E18 Blackbot the Pirate.avi\nFormat                                   : AVI\nFormat/Info                              : Audio Video Interleave\nFile size                                : 175 MiB\nDuration                                 : 22mn 13s\nOverall bit rate mode                    : Variable\nOverall bit rate                         : 1 101 Kbps\nWriting application                      : VirtualDubMod 1.5.4.1 (build 2178/release)\nWriting library                          : VirtualDubMod build 2178/release\n\nVideo\nID                                       : 0\nFormat                                   : MPEG-4 Visual\nFormat profile                           : Advanced Simple@L5\nFormat settings, BVOP                    : 1\nFormat settings, QPel                    : No\nFormat settings, GMC                     : No warppoints\nFormat settings, Matrix                  : Custom\nCodec ID                                 : XVID\nCodec ID/Hint                            : XviD\nDuration                                 : 22mn 13s\nBit rate                                 : 972 Kbps\nWidth                                    : 560 pixels\nHeight                                   : 416 pixels\nDisplay aspect ratio                     : 4:3\nFrame rate                               : 25.000 fps\nColor space                              : YUV\nChroma subsampling                       : 4:2:0\nBit depth                                : 8 bits\nScan type                                : Progressive\nCompression mode                         : Lossy\nBits/(Pixel*Frame)                       : 0.167\nStream size                              : 154 MiB (88%)\nWriting library                          : XviD 1.2.1 (UTC 2008-12-04)\n\nAudio\nID                                       : 1\nFormat                                   : MPEG Audio\nFormat version                           : Version 1\nFormat profile                           : Layer 3\nMode                                     : Joint stereo\nCodec ID                                 : 55\nCodec ID/Hint                            : MP3\nDuration                                 : 22mn 13s\nBit rate mode                            : Variable\nBit rate                                 : 116 Kbps\nNominal bit rate                         : 128 Kbps\nChannel count                            : 2 channels\nSampling rate                            : 48.0 KHz\nCompression mode                         : Lossy\nStream size                              : 18.5 MiB (11%)\nAlignment                                : Aligned on interleaves\nInterleave, duration                     : 24 ms (0.60 video frame)\nInterleave, preload duration             : 710 ms\nWriting library                          : LAME3.98r\nEncoding settings                        : -m j -V 4 -q 2 -lowpass 17 --abr 128","torrent":{"xt":"urn:btih:6eb9b27de4559075284d5055d079dd68979a753e","amp;dn":"Adventures.Of.Sonic.The.Hedgehog.DvDRiP.XviD.MP3-CoDeX","amp;tr":["udp%3A%2F%2Ftracker.openbittorrent.com%3A80","udp%3A%2F%2Fopen.demonii.com%3A1337","udp%3A%2F%2Ftracker.coppersurfer.tk%3A6969","udp%3A%2F%2Fexodus.desync.com%3A6969"],"infoHash":"6eb9b27de4559075284d5055d079dd68979a753e","infoHashBuffer":{"type":"Buffer","data":[110,185,178,125,228,85,144,117,40,77,80,85,208,121,221,104,151,154,117,62]},"announce":[],"urlList":[]}}